<?xml version="1.0" encoding="utf-8"?>
<!-- Generator: Adobe Illustrator 21.0.0, SVG Export Plug-In . SVG Version: 6.00 Build 0)  -->
<svg version="1.1" id="Layer_2" xmlns="http://www.w3.org/2000/svg" xmlns:xlink="http://www.w3.org/1999/xlink" x="0px" y="0px"
	 viewBox="0 0 16 16" style="enable-background:new 0 0 16 16;" xml:space="preserve">
<style type="text/css">
	.st0{fill:#DADAE3;stroke:#2B2B2B;stroke-miterlimit:10;}
	.st1{fill:#F7F7F7;stroke:#2B2B2B;stroke-width:0.5;stroke-miterlimit:10;}
	.st2{fill:#2B2B2B;}
	.st3{fill:#BBBBC3;}
	.st4{fill:#BDBDC3;}
	.st5{fill:#F3F3F5;}
	.st6{opacity:0.36;fill:#F3F3F5;enable-background:new    ;}
</style>
<path class="st0" d="M10.7,15.3c-0.2,0-0.4-0.1-1.9-0.9c-0.1,0-0.2-0.1-0.2-0.1c-0.2,0.1-0.6,0.3-0.9,0.5C7.2,15.1,6,15.1,6,15.1
	c-0.2,0-0.4,0-0.6-0.1H5.3l0,0c-0.3-0.1-0.6-0.5-0.9-1c-0.1-0.2-0.3-0.4-0.4-0.5c-0.4,0-2.5,0.5-2.5,0.5H1.4c-0.2,0-0.4-0.1-0.5-0.2
	c-0.3-0.3-0.2-0.9-0.1-1.2c0.3-0.9,1-3.3,1.1-3.9c0-0.2,0-0.3,0-0.6c0-0.8,0-1.9,0.8-4.1C3.4,1.9,5.5,0.5,8,0.5
	c5.6,0,6.1,6.1,6.2,8.1c0,0.2,0.1,0.6,0.1,0.6s0.3,1.3,0.5,1.9c0.6,1.8,0.7,2.2,0.2,2.4c-0.4,0.1-1.9,0.3-2.4,0.3
	c-0.1,0.1-0.2,0.3-0.6,0.8l0,0l0,0C11.5,15.2,11,15.3,10.7,15.3z"/>
<path class="st1" d="M8.5,4.2c-0.5,0-1,0.4-1.2,0.9C7.1,4.5,6.7,4.2,6.1,4.2c-0.7,0-1.3,0.7-1.3,1.5s0.6,1.5,1.3,1.5
	c0.5,0,1-0.4,1.2-0.9C7.5,6.8,8,7.2,8.5,7.2c0.7,0,1.3-0.7,1.3-1.5S9.2,4.2,8.5,4.2z"/>
<circle class="st2" cx="6.5" cy="6" r="0.6"/>
<circle class="st2" cx="8.3" cy="6" r="0.6"/>
<path class="st3" d="M4.6,9.3L4.6,9.3c-0.4,0.6-1.4,2.9-1.5,3.2c-0.2,0.1,0.1,0.1,0.1,0.1h1.1C4.3,12.6,4.7,9.8,4.6,9.3z"/>
<path class="st3" d="M7,9c0,0-0.7,1.2-0.7,2.8c0,1.5,0.2,2.3,0.2,2.3L8,13.4c0,0-0.5-1.2-0.6-1.8c-0.2-0.8-0.3-2.2-0.2-2.4
	C7.2,9,7,9,7,9z"/>
<path class="st4" d="M10.2,8.4c0,0-0.1,0.5,0,0.7s0.5,3,0.6,3.5s0.1,1.7,0.2,1.7c0.1,0,0.8-1,1-1.2c0.1-0.2,0-0.6,0-0.8
	s-0.3-1.1-0.6-1.9C11.1,9.6,10.5,8.6,10.2,8.4z"/>
<path class="st4" d="M11.4,3.2c0,0,1,1.3,1.1,2.7s-0.1,3.1,0,3.8s0.5,2.2,1,2.5s0.7,0.2,0.7,0.2s-0.8-2.3-0.9-3
	c-0.1-0.7-0.4-3.8-0.5-4.3s-1-1.9-1.2-2C11.3,3.1,11.4,3.2,11.4,3.2z"/>
<path class="st5" d="M6.6,1.8c0,0-1.8,0.7-2.4,2.1S3.7,5.4,3.7,5.4s0.4-0.9,1.6-1.7C6,3.3,6.9,3,7.2,2.9C7.9,2.6,8,1.6,6.6,1.8z"/>
<path class="st6" d="M2.8,13.1c0,0,1.9-1.1,2.6-0.9s2.1,0.3,3.1,0s2,0.4,2.3,0.5s1.1,0.7,1.3,0.5s1.3-0.7,1.7-0.5s0.8,0.3,0.8,0.3
	l-2.4,0.5c-0.8,0.9-1.7,1.4-1.7,1.4s-1.8-1.1-2.1-1.1c-0.2,0-2.5,1-2.9,0.6c-0.4-0.5-1-1.3-1.3-1.4C3.9,12.7,2.8,13.1,2.8,13.1z"/>
</svg>
